<?xml version="1.0" encoding="utf-8"?>
<!-- Generator: Adobe Illustrator 24.0.2, SVG Export Plug-In . SVG Version: 6.00 Build 0)  -->
<svg version="1.1" id="Layer_1" xmlns="http://www.w3.org/2000/svg" xmlns:xlink="http://www.w3.org/1999/xlink" x="0px" y="0px"
	 viewBox="0 0 1417.33 399.95" style="enable-background:new 0 0 1417.33 399.95;" xml:space="preserve">
<style type="text/css">
	.st0{fill:#FFFFFF;}
</style>
<g>
	<g>
		<path class="st0" d="M44.73,246.92c0-52.31-44.72-32.53-44.72-89.72v-16.54c0-19.51,8.4-33.88,34.97-33.88
			c26.56,0,34.96,14.37,34.96,33.88v23.04H44.73v-23.04c0-6.5-2.17-11.11-9.76-11.11c-7.32,0-9.76,4.61-9.76,11.11v15.72
			c0,45,44.72,24.94,44.72,89.99v21.96c0,19.51-8.4,33.61-34.96,33.61S0,287.84,0,268.33v-26.02h25.21v25.75
			c0,6.5,2.44,11.38,9.76,11.38c7.59,0,9.76-4.88,9.76-11.38L44.73,246.92L44.73,246.92z"/>
		<path class="st0" d="M127.12,299.24h-25.21V133.62H80.77V109.5h67.76v24.12h-21.41V299.24z"/>
		<path class="st0" d="M226.33,299.24h-25.48l-3.52-39.03h-21.14l-3.52,39.03h-25.48l23.58-189.74h31.99L226.33,299.24z
			 M178.62,236.9h16.26c-3.25-31.71-5.96-65.32-8.13-96.5C184.31,172.11,180.79,205.18,178.62,236.9z"/>
		<path class="st0" d="M241.23,109.5h37.95c26.02,0,31.98,13.01,31.98,32.53v45.27c0,15.99-3.52,26.56-17.35,30.63
			c9.22,27.1,18.16,54.21,27.1,81.32h-27.38c-7.59-26.57-15.72-53.4-23.31-80.23h-3.8v80.23h-25.21V109.5H241.23z M277.28,195.97
			c6.78,0,8.94-3.26,8.94-9.49v-43.37c0-6.5-2.44-9.49-9.21-9.49h-10.57v62.35H277.28z"/>
		<path class="st0" d="M369.98,299.24h-25.21V133.62h-21.14V109.5h67.76v24.12h-21.41V299.24z"/>
		<path class="st0" d="M430.15,268.07c0,7.05,2.71,11.38,10.03,11.38s9.76-4.33,9.76-11.38V109.5h25.21v158.84
			c0,18.97-8.67,33.61-34.97,33.61c-27.38,0-35.24-14.1-35.24-33.61V109.5h25.21L430.15,268.07L430.15,268.07z"/>
		<path class="st0" d="M498.18,109.5h37.68c26.02,0,32.25,13.01,32.25,32.53v45c0,20.33-8.67,32.26-32.8,32.26h-11.93v79.96h-25.21
			V109.5H498.18z M534.23,195.97c6.78,0,8.94-3.26,8.94-9.49v-43.37c0-6.5-2.44-9.49-9.21-9.49h-10.57v62.35H534.23z"/>
	</g>
	<path class="st0" d="M800.9,366.68c-5.12,39.4-13.63,32.88-13.63,32.88H779h-8.27c0,0-8.5,6.52-13.63-32.88
		c-0.58-4.46-0.73-8.83-0.57-13.08c-9.06-20.08-25.81-41.17-29.22-45.36h-6.81c3.85,10.76,6.43,23.79,4.62,37.7
		c-4.68,35.97-12.44,30.01-12.44,30.01h-7.55h-7.55c0,0-7.76,5.95-12.44-30.01c-1.81-13.91,0.78-26.94,4.62-37.7h-6.81
		c-3.41,4.2-20.16,25.29-29.22,45.36c0.16,4.25,0.01,8.62-0.57,13.08c-5.12,39.4-13.63,32.88-13.63,32.88h-8.27h-8.27
		c0,0-8.5,6.52-13.63-32.88c-5.12-39.4,21.89-72.4,21.89-72.4s2.9,3.56,6.62,9.7c4.6-15.6,12.13-33.95,24.11-47.42
		c-6.11-23.85-11.19-56.64-11.19-99.83C650.79,48.18,705.11,0,705.11,0s54.32,48.18,54.32,156.73c0,43.19-5.08,75.98-11.19,99.83
		c11.99,13.47,19.51,31.82,24.11,47.42c3.72-6.14,6.62-9.7,6.62-9.7S806.02,327.28,800.9,366.68z M705.15,83.82
		c-10.93,0-19.8,8.86-19.8,19.8c0,10.93,8.86,19.8,19.8,19.8c10.93,0,19.8-8.86,19.8-19.8S716.08,83.82,705.15,83.82z
		 M705.15,141.84c-10.93,0-19.8,8.86-19.8,19.8c0,10.93,8.86,19.8,19.8,19.8c10.93,0,19.8-8.86,19.8-19.8
		C724.95,150.71,716.08,141.84,705.15,141.84z M705.15,199.87c-10.93,0-19.8,8.86-19.8,19.8c0,10.93,8.86,19.8,19.8,19.8
		c10.93,0,19.8-8.86,19.8-19.8C724.95,208.73,716.08,199.87,705.15,199.87z"/>
	<g>
		<path class="st0" d="M893.45,242.38h24.7v25.78c0,19.54-7.87,33.93-34.47,33.93c-27.42,0-35.29-14.39-35.29-33.93V140.85
			c0-19.81,7.87-34.2,35.29-34.2c26.6,0,34.47,14.39,34.47,34.2v22.8h-24.7v-22.8c0-6.51-2.44-11.4-9.77-11.4
			c-7.33,0-10.04,4.88-10.04,11.4v127.04c0,7.06,2.72,11.67,10.04,11.67c7.33,0,9.77-4.61,9.77-11.67V242.38z"/>
		<polygon class="st0" points="960.22,275.49 992.8,275.49 992.8,299.38 934.97,299.38 934.97,109.36 992.8,109.36 992.8,133.52 
			960.22,133.52 960.22,191.61 988.45,191.61 988.45,214.96 960.22,214.96 		"/>
		<path class="st0" d="M1065.54,240.74c-1.63-22.8-2.17-48.32-2.17-71.12v-60.26h22.8v190.02h-23.89l-32.03-131.11
			c1.36,22.26,2.17,47.23,2.17,71.12v59.99h-22.8V109.36h24.16L1065.54,240.74z"/>
		<polygon class="st0" points="1143.99,299.38 1118.74,299.38 1118.74,133.52 1097.57,133.52 1097.57,109.36 1165.43,109.36 
			1165.43,133.52 1143.99,133.52 		"/>
		<path class="st0" d="M1212.93,195.95c6.79,0,8.96-3.26,8.96-9.5v-43.43c0-6.52-2.44-9.5-9.23-9.5h-10.59v62.44h10.86V195.95z
			 M1176.83,109.36h38c26.06,0,32.03,13.03,32.03,32.57v45.34c0,16.01-3.53,26.6-17.37,30.67c9.23,27.14,18.19,54.29,27.14,81.44
			h-27.42c-7.6-26.61-15.74-53.48-23.34-80.35h-3.8v80.35h-25.25V109.36H1176.83z"/>
		<path class="st0" d="M1287.31,236.94h16.29c-3.26-31.76-5.97-65.42-8.14-96.64C1293.01,172.07,1289.48,205.18,1287.31,236.94
			 M1335.08,299.38h-25.51l-3.53-39.09h-21.18l-3.53,39.09h-25.51l23.62-190.02h32.03L1335.08,299.38z"/>
		<polygon class="st0" points="1347.29,109.36 1372.54,109.36 1372.54,275.49 1417.33,275.49 1417.33,299.38 1347.29,299.38 		"/>
	</g>
</g>
</svg>
